<svg id="グループ_3644" data-name="グループ 3644" xmlns="http://www.w3.org/2000/svg" width="17.868" height="29.893" viewBox="0 0 17.868 29.893">
  <path id="パス_4630" data-name="パス 4630" d="M104.58,113.853c-1.6,1.038-1.916,4.284-1.311,6.93a23.9,23.9,0,0,0,3.16,7.426,24.816,24.816,0,0,0,5.492,5.914c2.169,1.631,5.261,2.667,6.862,1.629a8.108,8.108,0,0,0,2.067-2.217l-.86-1.326-2.366-3.647c-.176-.271-1.278-.023-1.838.294a5.332,5.332,0,0,0-1.451,1.576c-.518.3-.952,0-1.858-.416-1.114-.513-2.367-2.105-3.363-3.548-.911-1.5-1.854-3.292-1.868-4.518-.011-1-.106-1.516.378-1.866a5.332,5.332,0,0,0,2.031-.682c.518-.382,1.194-1.287,1.018-1.558l-2.365-3.647-.86-1.326A8.107,8.107,0,0,0,104.58,113.853Z" transform="translate(-102.982 -106.276)" fill="#fff"/>
  <path id="パス_4631" data-name="パス 4631" d="M276.314,10.3a7.631,7.631,0,0,0-5.191-9.106L271.449,0a8.867,8.867,0,0,1,6.057,10.625Z" transform="translate(-261.306)" fill="#fff"/>
  <path id="パス_4632" data-name="パス 4632" d="M262.32,51.257a4.95,4.95,0,0,0-3.315-5.815l.327-1.193a6.186,6.186,0,0,1,4.181,7.334Z" transform="translate(-249.896 -41.666)" fill="#fff"/>
  <path id="パス_4633" data-name="パス 4633" d="M248.306,92.237a2.269,2.269,0,0,0-1.436-2.519l.327-1.2a3.507,3.507,0,0,1,2.3,4.041Z" transform="translate(-238.469 -83.355)" fill="#fff"/>
</svg>
